<svg id="svg" version="1.1" xmlns="http://www.w3.org/2000/svg" xmlns:xlink="http://www.w3.org/1999/xlink" width="400" height="156.6958698372966" viewBox="0, 0, 400,156.6958698372966"><g id="svgg"><path id="path0" d="M142.986 25.577 C 141.451 26.783,141.479 26.728,124.126 63.830 C 104.353 106.106,102.533 110.136,102.244 112.294 C 101.720 116.200,104.567 119.149,108.861 119.149 C 112.949 119.149,111.072 122.516,132.018 77.597 C 138.759 63.141,146.221 47.146,148.600 42.053 C 153.475 31.616,153.890 29.632,151.690 27.277 C 149.005 24.403,145.378 23.695,142.986 25.577 M273.678 28.515 C 270.105 29.216,268.836 32.118,268.836 39.585 C 268.836 45.777,270.145 47.159,276.045 47.197 C 282.913 47.242,283.871 46.084,283.824 37.797 C 283.777 29.503,281.105 27.059,273.678 28.515 M182.923 33.031 C 178.704 34.736,178.540 43.121,182.686 45.083 C 183.398 45.419,186.291 45.806,189.116 45.942 L 194.252 46.189 194.122 72.531 L 193.992 98.874 185.116 99.124 C 176.427 99.369,176.213 99.401,174.967 100.649 C 173.284 102.334,172.783 106.128,173.894 108.787 C 175.323 112.207,175.138 112.186,202.562 112.029 L 226.866 111.890 228.327 110.255 C 229.567 108.866,229.787 108.203,229.787 105.850 C 229.787 99.877,228.378 99.124,217.197 99.124 L 209.262 99.124 209.262 66.661 C 209.262 35.847,209.215 34.156,208.346 33.369 C 207.329 32.449,185.096 32.153,182.923 33.031 M75.845 42.417 C 74.949 42.639,57.282 50.774,30.294 63.391 C 16.212 69.975,13.586 73.201,18.425 77.972 C 21.337 80.844,73.137 104.700,77.152 105.019 C 81.193 105.340,83.354 103.455,83.354 99.608 C 83.354 95.939,81.468 94.431,70.271 89.143 C 65.352 86.820,58.173 83.414,54.318 81.573 C 50.463 79.733,45.309 77.298,42.865 76.162 C 38.731 74.242,37.469 72.591,40.136 72.591 C 40.390 72.591,41.546 72.122,42.703 71.549 C 43.859 70.976,52.541 66.810,61.996 62.291 C 71.450 57.772,79.845 53.605,80.651 53.030 C 86.511 48.858,82.812 40.691,75.845 42.417 M323.061 42.785 C 320.103 44.072,319.062 47.931,320.872 50.899 C 322.175 53.037,323.248 53.614,345.432 64.111 C 356.033 69.126,364.879 73.384,365.091 73.571 C 365.303 73.759,359.333 76.808,351.825 80.346 C 319.701 95.486,320.150 95.211,320.150 99.698 C 320.150 103.457,322.355 105.343,326.352 105.003 C 329.098 104.770,378.036 82.785,383.532 79.316 C 388.190 76.376,387.958 71.479,383.013 68.357 C 380.106 66.522,334.958 45.333,329.525 43.254 C 325.929 41.878,325.259 41.829,323.061 42.785 M258.474 56.669 C 255.512 58.101,254.902 64.891,257.501 67.492 C 258.761 68.752,259.195 68.852,264.466 69.086 L 270.088 69.337 270.088 84.105 L 270.088 98.874 261.552 99.124 C 250.581 99.446,248.559 100.727,249.522 106.747 C 250.406 112.274,249.703 112.140,277.757 112.140 C 305.805 112.140,305.355 112.228,306.081 106.592 C 306.877 100.409,304.713 99.126,293.492 99.125 L 285.357 99.124 285.357 78.384 C 285.357 60.196,285.260 57.547,284.570 56.857 C 283.613 55.900,260.413 55.733,258.474 56.669 " stroke="none" fill="#ffffff" fill-rule="evenodd"></path></g></svg>